<svg width="346" height="385" viewBox="0 0 346 385" fill="none" xmlns="http://www.w3.org/2000/svg">
<path d="M178.73 0.000102383C169.817 -0.0163579 161.013 1.95214 152.955 5.76268C144.898 9.57322 137.791 15.1302 132.149 22.03L13.9557 165.615C6.61061 174.409 1.93596 185.122 0.483962 196.487C-0.968041 207.853 0.86327 219.397 5.76155 229.755C10.6598 240.114 18.4204 248.854 28.1266 254.943C37.8328 261.032 49.079 264.216 60.5367 264.119H106.698V324.146C106.572 336.621 110.337 348.824 117.468 359.06C124.598 369.297 134.741 377.057 146.486 381.262C158.231 385.468 170.994 385.909 183.002 382.526C195.009 379.143 205.664 372.102 213.486 362.383L331.499 218.559C338.844 209.764 343.519 199.052 344.971 187.686C346.423 176.32 344.591 164.776 339.693 154.418C334.795 144.06 327.034 135.32 317.328 129.23C307.622 123.141 296.376 119.957 284.918 120.054H238.757V60.0272C238.757 44.107 232.433 28.8389 221.176 17.5816C209.918 6.32436 194.65 0.000102383 178.73 0.000102383ZM284.918 168.076C287.272 167.984 289.601 168.588 291.615 169.81C293.629 171.033 295.238 172.821 296.243 174.953C297.248 177.084 297.603 179.463 297.265 181.795C296.927 184.126 295.911 186.307 294.342 188.065L176.389 331.71C174.669 333.875 172.254 335.38 169.553 335.97C166.851 336.561 164.029 336.201 161.562 334.951C159.458 333.878 157.699 332.233 156.489 330.204C155.278 328.176 154.665 325.847 154.719 323.486V232.245C154.719 227.962 153.018 223.855 149.99 220.827C146.962 217.799 142.854 216.098 138.572 216.098H60.5367C58.1825 216.189 55.8534 215.586 53.8396 214.363C51.8257 213.14 50.2162 211.352 49.2115 209.221C48.2068 207.09 47.8513 204.71 48.1893 202.379C48.5273 200.047 49.5439 197.866 51.1124 196.108L169.066 52.4638C170.587 50.3945 172.731 48.8676 175.185 48.1074C177.638 47.3471 180.27 47.3935 182.695 48.2398C185.12 49.0862 187.209 50.6878 188.656 52.8094C190.103 54.931 190.832 57.4608 190.735 60.0272V151.929C190.735 156.211 192.437 160.318 195.465 163.346C198.493 166.375 202.6 168.076 206.883 168.076H284.918Z" fill="white"/>
</svg>
