<svg width="158" height="158" viewBox="0 0 158 158" fill="none" xmlns="http://www.w3.org/2000/svg">
<g clip-path="url(#clip0_1213_8)">
<path fill-rule="evenodd" clip-rule="evenodd" d="M110.901 126.553C136.888 126.553 158.004 105.686 158.424 79.7862L158.43 79C158.43 122.771 122.965 158.255 79.2149 158.255C35.4658 158.255 0 122.771 0 79H63.3722C63.3722 105.263 84.6515 126.553 110.901 126.553Z" fill="url(#paint0_linear_1213_8)"/>
<path fill-rule="evenodd" clip-rule="evenodd" d="M47.5302 126.553C21.5432 126.553 0.427313 105.686 0.00759679 79.7862L0.0012207 79C0.0012207 122.771 35.467 158.255 79.2165 158.255C122.966 158.255 158.431 122.771 158.431 79H95.0592C95.0592 105.263 73.7799 126.553 47.5302 126.553Z" fill="url(#paint1_linear_1213_8)"/>
<path fill-rule="evenodd" clip-rule="evenodd" d="M47.5302 31.447C21.5432 31.447 0.427313 52.3134 0.00759679 78.2136L0.0012207 78.9998C0.0012207 35.2287 35.467 -0.254883 79.2165 -0.254883C122.966 -0.254883 158.431 35.2287 158.431 78.9998H95.0592C95.0592 52.737 73.7799 31.447 47.5302 31.447Z" fill="url(#paint2_linear_1213_8)"/>
<path fill-rule="evenodd" clip-rule="evenodd" d="M110.901 31.4465C136.888 31.4465 158.004 52.3129 158.424 78.2131L158.43 78.9993C158.43 35.2282 122.965 -0.255371 79.2149 -0.255371C35.4658 -0.255371 0 35.2282 0 78.9993H63.3722C63.3722 52.7365 84.6515 31.4465 110.901 31.4465Z" fill="url(#paint3_linear_1213_8)"/>
<path d="M62.5768 78.2065H0.789062V79.7916H62.5768V78.2065Z" fill="#EF9146"/>
<path d="M157.642 78.2065H95.8538V79.7916H157.642V78.2065Z" fill="#E57622"/>
</g>
<defs>
<linearGradient id="paint0_linear_1213_8" x1="34.6566" y1="79" x2="37.1346" y2="158.254" gradientUnits="userSpaceOnUse">
<stop stop-color="#EF9146"/>
<stop offset="1" stop-color="#E0592E"/>
</linearGradient>
<linearGradient id="paint1_linear_1213_8" x1="79.2165" y1="79" x2="79.2165" y2="158.255" gradientUnits="userSpaceOnUse">
<stop stop-color="#E57722"/>
<stop offset="1" stop-color="#F2B24C"/>
</linearGradient>
<linearGradient id="paint2_linear_1213_8" x1="116.283" y1="78.9998" x2="116.283" y2="3.10849" gradientUnits="userSpaceOnUse">
<stop stop-color="#E57722"/>
<stop offset="1" stop-color="#DD4A33"/>
</linearGradient>
<linearGradient id="paint3_linear_1213_8" x1="32.1811" y1="78.9993" x2="32.1811" y2="-0.255371" gradientUnits="userSpaceOnUse">
<stop stop-color="#EF9046"/>
<stop offset="1" stop-color="#F3C44F"/>
</linearGradient>
<clipPath id="clip0_1213_8">
<rect width="158" height="158" fill="white"/>
</clipPath>
</defs>
</svg>
