<svg width="50" height="59" viewBox="0 0 50 59" fill="none" xmlns="http://www.w3.org/2000/svg">
<path d="M14.0409 4.30371L3.52248 10.381L3.52247 14.4324L0.0163574 16.4583V44.8189L24.5592 58.9992L49.1021 44.8189V16.4583L45.596 14.4324L45.596 10.381L35.0776 4.30371H14.0409Z" fill="black"/>
<path d="M3.50562 11.127L14.0238 5.0498H35.0602L45.5783 11.127V39.4871L24.542 51.6414L3.50562 39.4871V11.127Z" fill="black"/>
<path fill-rule="evenodd" clip-rule="evenodd" d="M3.50563 7.07521L14.0238 0.998047H35.0602L45.5784 7.07521V11.1267L35.0602 5.04949H14.0238L3.50563 11.1267V7.07521ZM49.0846 13.1524V41.5125L24.5422 55.6926L-0.000244141 41.5125V13.1524L3.50582 11.1267V39.4868L24.5422 51.6411L45.5785 39.4868V11.1267L49.0846 13.1524ZM17.5301 15.1782L14.0241 13.1525V25.3068L24.5423 31.384L35.0604 25.3068V13.1525L31.5544 15.1782V23.2811L24.5423 27.3325L17.5301 23.2811V15.1782ZM31.5543 31.384V35.4354L21.0362 41.5126V37.4611L31.5543 31.384Z" fill="url(#paint0_linear_127_9805)"/>
<defs>
<linearGradient id="paint0_linear_127_9805" x1="0.749664" y1="10.7747" x2="19.628" y2="58.3645" gradientUnits="userSpaceOnUse">
<stop stop-color="#FFE600"/>
<stop offset="0.21875" stop-color="#FDFF85"/>
<stop offset="0.479167" stop-color="#66F6FF"/>
<stop offset="1" stop-color="#CD9BFF"/>
</linearGradient>
</defs>
</svg>
